<svg width="68" height="25" viewBox="0 0 68 25" fill="none" xmlns="http://www.w3.org/2000/svg">
<rect x="40.3598" y="2.90454" width="2.97473" height="2.97473" rx="1.48737" fill="black"/>
<rect x="40.3598" y="18.8601" width="2.97473" height="2.97473" rx="1.48737" fill="black"/>
<path d="M47.442 6.27079V3.87336H53.2335V0.398438H56.2775V3.87336H62.0421V6.27079H47.442ZM48.6003 13.5708C48.6003 10.2036 51.2132 7.81969 54.7959 7.83315C58.3651 7.81969 60.9915 10.2036 60.9915 13.5708C60.9915 16.9245 58.3651 19.2815 54.7959 19.2815C51.2132 19.2815 48.6003 16.9245 48.6003 13.5708ZM51.4557 13.5708C51.4557 15.5507 52.8429 16.8168 54.7959 16.8033C56.7354 16.8168 58.1227 15.5507 58.1092 13.5708C58.1227 11.5909 56.7354 10.2845 54.7959 10.2845C52.8429 10.2845 51.4557 11.5909 51.4557 13.5708Z" fill="black"/>
<path d="M23.6025 6.27079V3.87336H29.3941V0.398438H32.438V3.87336H38.2026V6.27079H23.6025ZM24.7608 13.5708C24.7608 10.2036 27.3737 7.81969 30.9564 7.83315C34.5256 7.81969 37.152 10.2036 37.152 13.5708C37.152 16.9245 34.5256 19.2815 30.9564 19.2815C27.3737 19.2815 24.7608 16.9245 24.7608 13.5708ZM27.6162 13.5708C27.6162 15.5507 29.0035 16.8168 30.9564 16.8033C32.8959 16.8168 34.2832 15.5507 34.2697 13.5708C34.2832 11.5909 32.8959 10.2845 30.9564 10.2845C29.0035 10.2845 27.6162 11.5909 27.6162 13.5708Z" fill="black"/>
<path d="M67.9999 12.3538C67.9999 16.9601 66.7877 21.0141 64.5789 24.5564H62.9357C64.7809 21.6337 66.1008 16.758 66.1143 12.3538C66.1008 7.93603 64.7674 3.07383 62.9357 0.151123H64.5789C66.7877 3.70686 67.9999 7.76093 67.9999 12.3538Z" fill="black"/>
<path d="M19.4758 0.0529785V24.4313H16.4588V0.0529785H19.4758ZM5.05339e-05 10.4239C-0.0134182 5.17108 2.66685 1.83085 6.35727 1.83085C10.0073 1.83085 12.701 5.17108 12.7145 10.4239C12.701 15.7171 10.0073 19.0438 6.35727 19.0438C2.66685 19.0438 -0.0134182 15.7171 5.05339e-05 10.4239ZM2.88235 10.4239C2.88235 14.1682 4.29656 16.3366 6.35727 16.3501C8.40451 16.3366 9.80526 14.1682 9.80526 10.4239C9.80526 6.70651 8.40451 4.52458 6.35727 4.52458C4.29656 4.52458 2.88235 6.70651 2.88235 10.4239Z" fill="black"/>
</svg>
